<?xml version="1.0" encoding="UTF-8" standalone="no"?>
<svg width="128" height="64" viewBox="0 0 128 64" xmlns="http://www.w3.org/2000/svg">
  <!-- Ground Atlas containing grass and path tiles -->
  
  <!-- Grass Tile (0,0) -->
  <g transform="translate(0, 0)">
    <!-- Base grass color -->
    <rect width="64" height="64" fill="#6eab23" />
    
    <!-- Grass texture - lighter patches -->
    <ellipse cx="16" cy="16" rx="12" ry="10" fill="#8bc631" fill-opacity="0.7" />
    <ellipse cx="48" cy="48" rx="14" ry="12" fill="#8bc631" fill-opacity="0.7" />
    <ellipse cx="42" cy="20" rx="10" ry="8" fill="#8bc631" fill-opacity="0.5" />
    
    <!-- Individual grass blades -->
    <g fill="#517e1a">
      <path d="M10,38 L8,24 L12,38 Z" />
      <path d="M20,42 L18,26 L22,42 Z" />
      <path d="M30,46 L28,30 L32,46 Z" />
      <path d="M40,44 L38,28 L42,44 Z" />
      <path d="M50,40 L48,24 L52,40 Z" />
      <path d="M16,50 L14,36 L18,50 Z" />
      <path d="M36,52 L34,38 L38,52 Z" />
      <path d="M54,54 L52,40 L56,54 Z" />
    </g>
    
    <!-- Small details/highlights -->
    <circle cx="12" cy="12" r="1" fill="#a3d84a" />
    <circle cx="24" cy="20" r="1" fill="#a3d84a" />
    <circle cx="36" cy="14" r="1" fill="#a3d84a" />
    <circle cx="48" cy="24" r="1" fill="#a3d84a" />
    <circle cx="18" cy="38" r="1" fill="#a3d84a" />
    <circle cx="32" cy="44" r="1" fill="#a3d84a" />
    <circle cx="52" cy="36" r="1" fill="#a3d84a" />
  </g>
  
  <!-- Path Tile (64,0) -->
  <g transform="translate(64, 0)">
    <!-- Simple path tile with beige color -->
    <rect width="64" height="64" fill="#e6d2a8" />
    
    <!-- Subtle texture dots -->
    <g fill="#d4c090" fill-opacity="0.5">
      <circle cx="12" cy="12" r="1.5" />
      <circle cx="24" cy="24" r="1.5" />
      <circle cx="36" cy="36" r="1.5" />
      <circle cx="48" cy="48" r="1.5" />
      <circle cx="16" cy="44" r="1.5" />
      <circle cx="32" cy="16" r="1.5" />
      <circle cx="52" cy="28" r="1.5" />
      <circle cx="8" cy="52" r="1.5" />
    </g>
  </g>
</svg>