<?xml version="1.0" encoding="UTF-8" standalone="no"?>
<svg width="192" height="64" viewBox="0 0 192 64" xmlns="http://www.w3.org/2000/svg">
  <!-- Obstacles Atlas containing bush, rock, and tree tiles -->
  
  <!-- Bush Tile (0,0) -->
  <g transform="translate(0, 0)">
    <!-- Bush base -->
    <ellipse cx="32" cy="45" rx="26" ry="15" fill="#2e7d32" />
    
    <!-- Bush sections - fluffy appearance -->
    <circle cx="20" cy="32" r="14" fill="#388e3c" />
    <circle cx="32" cy="28" r="16" fill="#43a047" />
    <circle cx="46" cy="34" r="12" fill="#388e3c" />
    <circle cx="26" cy="24" r="10" fill="#4caf50" />
    <circle cx="40" cy="26" r="11" fill="#4caf50" />
    
    <!-- Highlight detail -->
    <circle cx="30" cy="22" r="3" fill="#81c784" />
    <circle cx="38" cy="30" r="2" fill="#81c784" />
    <circle cx="22" cy="28" r="2" fill="#81c784" />
  </g>
  
  <!-- Rock Tile (64,0) -->
  <g transform="translate(64, 0)">
    <!-- Main rock shape -->
    <ellipse cx="32" cy="38" rx="24" ry="18" fill="#757575" />
    
    <!-- Shadow -->
    <ellipse cx="30" cy="40" rx="22" ry="16" fill="#616161" />
    
    <!-- Highlights and texture -->
    <ellipse cx="26" cy="32" rx="10" ry="7" fill="#9e9e9e" fill-opacity="0.6" />
    <ellipse cx="38" cy="36" rx="8" ry="5" fill="#9e9e9e" fill-opacity="0.4" />
    
    <!-- Small details -->
    <circle cx="22" cy="40" r="2" fill="#616161" />
    <circle cx="42" cy="34" r="1.5" fill="#616161" />
    <circle cx="30" cy="26" r="1" fill="#9e9e9e" />
  </g>
  
  <!-- Tree Tile (128,0) -->
  <g transform="translate(128, 0)">
    <!-- Tree trunk -->
    <rect x="26" y="36" width="12" height="24" fill="#795548" />
    
    <!-- Tree crown/foliage -->
    <circle cx="32" cy="20" r="18" fill="#43a047" />
    <circle cx="24" cy="24" r="10" fill="#2e7d32" />
    <circle cx="40" cy="24" r="10" fill="#2e7d32" />
    <circle cx="32" cy="14" r="12" fill="#388e3c" />
    
    <!-- Highlights -->
    <circle cx="28" cy="16" r="3" fill="#81c784" />
    <circle cx="36" cy="18" r="2" fill="#81c784" />
    
    <!-- Trunk detail -->
    <rect x="26" y="42" width="3" height="2" fill="#5d4037" />
    <rect x="30" y="46" width="3" height="2" fill="#5d4037" />
  </g>
</svg>