<?xml version="1.0" encoding="UTF-8" standalone="no"?>
<svg
   viewBox="0 0 320.00022 255.99988"
   version="1.1"
   id="svg25"
   sodipodi:docname="road.svg"
   inkscape:version="1.4 (86a8ad7, 2024-10-11)"
   width="320.00021"
   height="255.99988"
   xmlns:inkscape="http://www.inkscape.org/namespaces/inkscape"
   xmlns:sodipodi="http://sodipodi.sourceforge.net/DTD/sodipodi-0.dtd"
   xmlns="http://www.w3.org/2000/svg"
   xmlns:svg="http://www.w3.org/2000/svg">
  <defs
     id="defs25" />
  <sodipodi:namedview
     id="namedview25"
     pagecolor="#ffffff"
     bordercolor="#000000"
     borderopacity="0.25"
     inkscape:showpageshadow="2"
     inkscape:pageopacity="0.0"
     inkscape:pagecheckerboard="0"
     inkscape:deskcolor="#d1d1d1"
     showgrid="true"
     inkscape:zoom="6.264"
     inkscape:cx="277.53831"
     inkscape:cy="126.83589"
     inkscape:window-width="1920"
     inkscape:window-height="1001"
     inkscape:window-x="-9"
     inkscape:window-y="-9"
     inkscape:window-maximized="1"
     inkscape:current-layer="svg25">
    <inkscape:grid
       id="grid25"
       units="px"
       originx="-1.7134207e-05"
       originy="-0.00012599305"
       spacingx="1"
       spacingy="1"
       empcolor="#0099e5"
       empopacity="0.30196078"
       color="#0099e5"
       opacity="0.14901961"
       empspacing="4"
       enabled="true"
       visible="true" />
  </sodipodi:namedview>
  <rect
     style="fill:#6eab23;fill-opacity:1;stroke-width:1.01436"
     id="rect25"
     width="64.016304"
     height="63.999905"
     x="191.99998"
     y="127.99997" />
  <g
     id="svg8"
     transform="translate(111.97121,-251.457)">
    <path
       width="1024"
       height="1024"
       fill="url(#pattern0_5_18)"
       id="rect1"
       x="0"
       y="0"
       d="M -291.97,251.457 H 732.029 V 1275.46 H -291.97 Z"
       style="display:none" />
    <g
       id="g10"
       style="display:none"
       transform="translate(-291.97116,251.45697)">
      <rect
         x="302"
         y="660"
         width="181"
         height="181"
         fill="#6eab23"
         id="rect2" />
      <rect
         x="327"
         y="685"
         width="130"
         height="130"
         fill="#8cb624"
         id="rect3" />
      <rect
         x="351"
         y="709"
         width="82"
         height="82"
         fill="#e7bb60"
         id="rect4" />
    </g>
    <g
       id="g9"
       style="display:inline"
       transform="matrix(0.355556,0,0,0.355465,-91.348938,16.850304)">
      <rect
         x="302"
         y="660"
         width="180"
         height="180"
         fill="#6eab23"
         id="rect5"
         style="stroke-width:0.994475" />
      <path
         d="m 483,685 v 130.77115 h -4.97821 c -5.5734,0 -15.69162,0.14379 -18.58366,4.63738 -1.0122,1.57273 -1.59942,3.44487 -1.59942,5.45416 V 841 H 327 V 727.85838 c 0,-23.88255 19.39464,-43.22519 43.27711,-43.16106 z"
         fill="#8cb624"
         id="path5"
         style="display:inline;stroke-width:0.993651"
         transform="matrix(0.99358973,0,0,0.99092889,2.0961576,6.6288047)" />
      <path
         d="M 474.58949,709 H 483 v 80.53916 h -16.46201 c -9.47368,0 -26.67264,0.24441 -31.58853,7.88263 -1.72052,2.67332 -2.71869,5.85558 -2.71869,9.27098 v 33.2982 H 351 V 791 750.58949 c 0,-8.28075 2.42009,-15.99625 6.59157,-22.47781 5.97897,-9.29002 19.31932,-14.06886 33.94826,-16.52474 C 414.16557,707.78858 451.62025,709 474.58949,709 Z"
         fill="#e7bb60"
         id="path6"
         transform="matrix(0.98484847,0,0,0.99104476,6.3181861,7.5313543)" />
      <path
         id="path26"
         style="fill:#cea846;fill-opacity:1;stroke-width:0.981821"
         d="M 392.95969,710 A 40.959347,40.707906 0 0 0 352,750.70825 v 5.46753 a 40.959347,40.707906 0 0 1 40.95969,-40.70825 H 432.75758 482 V 710 h -49.24242 z" />
    </g>
    <g
       id="g8"
       style="display:inline"
       transform="matrix(0.355556,0,0,0.355737,-219.34895,144.63754)">
      <rect
         x="302"
         y="660"
         width="180"
         height="180"
         fill="#6eab23"
         id="rect6"
         style="stroke-width:0.994475" />
      <rect
         x="327"
         y="660"
         width="130"
         height="180"
         fill="#8cb624"
         id="rect7"
         style="stroke-width:0.997234" />
      <rect
         x="352"
         y="660"
         width="80"
         height="180"
         fill="#e7bb60"
         id="rect8"
         style="stroke-width:0.984998" />
    </g>
    <g
       id="g22"
       style="display:inline"
       transform="matrix(0.355556,0,0,0.355465,-219.34895,16.850304)">
      <rect
         x="302"
         y="660"
         width="180"
         height="180"
         fill="#6eab23"
         id="rect19"
         style="stroke-width:0.994475" />
      <rect
         x="302"
         y="685"
         width="180"
         height="155"
         fill="#8cb624"
         id="rect20"
         style="stroke-width:1.28488" />
      <path
         id="path20"
         style="fill:#e7bb60;stroke-width:1.48571"
         d="m 302,709 h 181 v 80.61069 h -31.39367 a 18.884111,18.884111 135 0 0 -18.88411,18.88411 v 31.49757 h -80.44444 c 0.13673,-11.22761 0.16744,-22.56858 0.12064,-33.87154 -0.0377,-9.11846 -7.5127,-16.51014 -16.63127,-16.51014 H 302 Z"
         transform="matrix(0.99447514,0,0,0.99242424,1.6685083,6.3712121)" />
      <rect
         style="fill:#cea846;fill-opacity:1;stroke-width:0.943401"
         id="rect21"
         width="179.96892"
         height="5.0000024"
         x="302"
         y="710" />
      <path
         id="path21"
         style="fill:#6eab23;stroke-width:1.00148"
         d="m 302,816.1474 h 17.61171 A 7.3882948,7.3882948 45 0 1 327,823.53569 v 20.25728 h -25 z"
         transform="matrix(1,0,0,0.90430394,0,76.954691)" />
      <path
         id="path22"
         style="fill:#6eab23;stroke-width:1.00148"
         d="m 302,816.1474 h 17.61171 A 7.3882948,7.3882948 45 0 1 327,823.53569 v 20.25728 h -25 z"
         transform="matrix(-1,0,0,0.90430404,784,76.954608)" />
    </g>
    <g
       id="g34"
       style="display:inline"
       transform="matrix(-0.355556,0,0,0.355465,251.40662,16.850304)">
      <rect
         x="302"
         y="660"
         width="180"
         height="180"
         fill="#6eab23"
         id="rect32"
         style="stroke-width:0.994475" />
      <path
         d="m 483,685 v 130.77115 h -15.06975 a 10.091537,10.091537 135 0 0 -10.09154,10.09154 V 841 H 327 V 727.85838 a 43.161213,43.161213 135.07692 0 1 43.27711,-43.16106 z"
         fill="#8cb624"
         id="path32"
         style="display:inline;stroke-width:0.993651"
         transform="matrix(0.99358973,0,0,0.99092889,2.0961576,6.6288047)" />
      <path
         d="M 474.58949,709 H 483 v 80.53916 h -33.61562 a 17.153613,17.153613 135 0 0 -17.15361,17.15361 v 33.2982 H 351 V 791 750.58949 c 0,-8.28075 2.42009,-15.99625 6.59157,-22.47781 5.97897,-9.29002 19.31932,-14.06886 33.94826,-16.52474 C 414.16557,707.78858 451.62025,709 474.58949,709 Z"
         fill="#e7bb60"
         id="path33"
         transform="matrix(0.98484847,0,0,0.99104476,6.3181861,7.5313543)" />
      <path
         id="path34"
         style="fill:#cea846;fill-opacity:1;stroke-width:0.981821"
         d="M 392.95969,710 A 40.959347,40.707906 0 0 0 352,750.70825 v 5.46753 a 40.959347,40.707906 0 0 1 40.95969,-40.70825 H 432.75758 482 V 710 h -49.24242 z" />
    </g>
    <g
       id="g40"
       style="display:inline"
       transform="matrix(0.355556,0,0,-0.355465,-219.34895,614.03088)">
      <rect
         x="302"
         y="660"
         width="180"
         height="180"
         fill="#6eab23"
         id="rect37"
         style="stroke-width:0.994475" />
      <rect
         x="302"
         y="685"
         width="180"
         height="155"
         fill="#8cb624"
         id="rect38"
         style="stroke-width:1.28488" />
      <path
         id="path38"
         style="fill:#e7bb60;stroke-width:1.48571"
         d="m 302,709 h 181 v 80.61069 h -33.18333 a 17.094446,17.094446 135 0 0 -17.09445,17.09445 v 33.28723 h -80.44444 c 0.13673,-11.22761 0.16744,-22.56858 0.12064,-33.87154 -0.0377,-9.11846 -7.5127,-16.51014 -16.63127,-16.51014 H 302 Z"
         transform="matrix(0.99447514,0,0,0.99242424,1.6685083,6.3712121)" />
      <path
         id="path39"
         style="fill:#6eab23;stroke-width:1.00148"
         d="m 302,816.1474 h 17.61171 A 7.3882948,7.3882948 45 0 1 327,823.53569 v 20.25728 h -25 z"
         transform="matrix(1,0,0,0.90430394,0,76.954691)" />
      <path
         id="rect39"
         style="display:inline;fill:#cea846;stroke-width:1.57247"
         d="m 352,812.00006 a 17,17 0 0 0 -17,-17 h -33 v -5 h 33 a 17,17 0 0 1 17,17 z"
         transform="translate(0,-5.00006)" />
      <path
         id="path40"
         style="fill:#6eab23;stroke-width:1.00148"
         d="m 302,816.1474 h 17.61171 A 7.3882948,7.3882948 45 0 1 327,823.53569 v 20.25728 h -25 z"
         transform="matrix(-1,0,0,0.90430404,784,76.954608)" />
      <path
         id="path49"
         style="display:inline;fill:#cea846;stroke-width:1.56788"
         d="m 432,807.09263 a 16.83,17.071581 0 0 1 16.83,-17.07158 H 481.5 V 785 H 448.83 A 16.83,17.071581 0 0 0 432,802.07158 Z" />
    </g>
    <g
       id="g52"
       style="display:inline"
       transform="matrix(-0.355556,0,0,-0.355465,251.40662,614.03088)">
      <rect
         x="302"
         y="660"
         width="180"
         height="180"
         fill="#6eab23"
         id="rect49"
         style="stroke-width:0.994475" />
      <path
         d="m 483,685 v 130.77115 h -15.06975 a 10.091537,10.091537 135 0 0 -10.09154,10.09154 V 841 H 327 V 727.85838 a 43.161213,43.161213 135.07692 0 1 43.27711,-43.16106 z"
         fill="#8cb624"
         id="path50"
         style="display:inline;stroke-width:0.993651"
         transform="matrix(0.99358973,0,0,0.99092889,2.0961576,6.6288047)" />
      <path
         d="M 474.58949,709 H 483 v 80.53916 h -33.61562 a 17.153613,17.153613 135 0 0 -17.15361,17.15361 v 33.2982 H 351 V 791 750.58949 c 0,-8.28075 2.42009,-15.99625 6.59157,-22.47781 5.97897,-9.29002 19.31932,-14.06886 33.94826,-16.52474 C 414.16557,707.78858 451.62025,709 474.58949,709 Z"
         fill="#e7bb60"
         id="path51"
         transform="matrix(0.98484847,0,0,0.99104476,6.3181861,7.5313543)" />
      <path
         id="path55"
         style="display:inline;fill:#cea846;stroke-width:1.56788"
         d="M 432.55871,807.07158 A 16.83,17.071581 0 0 1 449.38871,790 h 32.67 v -5.02105 h -32.67 a 16.83,17.071581 0 0 0 -16.83,17.07158 z" />
    </g>
    <g
       id="g58"
       style="display:inline"
       transform="matrix(0.355556,0,0,-0.355465,-91.369812,614.03088)">
      <rect
         x="302"
         y="660"
         width="180"
         height="180"
         fill="#6eab23"
         id="rect55"
         style="stroke-width:0.994475" />
      <path
         d="m 483,685 v 130.77115 h -15.06975 a 10.091537,10.091537 135 0 0 -10.09154,10.09154 V 841 H 327 V 727.85838 a 43.161213,43.161213 135.07692 0 1 43.27711,-43.16106 z"
         fill="#8cb624"
         id="path56"
         style="display:inline;stroke-width:0.993651"
         transform="matrix(0.99358973,0,0,0.99092889,2.0961576,6.6288047)" />
      <path
         d="M 474.58949,709 H 483 v 80.53916 h -33.61562 a 17.153613,17.153613 135 0 0 -17.15361,17.15361 v 33.2982 H 351 V 791 750.58949 c 0,-8.28075 2.42009,-15.99625 6.59157,-22.47781 5.97897,-9.29002 19.31932,-14.06886 33.94826,-16.52474 C 414.16557,707.78858 451.62025,709 474.58949,709 Z"
         fill="#e7bb60"
         id="path57"
         transform="matrix(0.98484847,0,0,0.99104476,6.3181861,7.5313543)" />
      <path
         id="path58"
         style="display:inline;fill:#cea846;stroke-width:1.56788"
         d="M 432.55871,807.07158 A 16.83,17.071581 0 0 1 449.38871,790 h 32.67 v -5.02105 h -32.67 a 16.83,17.071581 0 0 0 -16.83,17.07158 z" />
    </g>
    <g
       id="g15"
       style="display:inline"
       transform="matrix(0,0.355465,-0.355556,0,250.6955,144.10664)">
      <rect
         x="302"
         y="660"
         width="180"
         height="180"
         fill="#6eab23"
         id="rect12"
         style="stroke-width:0.994475" />
      <rect
         x="302"
         y="685"
         width="180"
         height="155"
         fill="#8cb624"
         id="rect13"
         style="stroke-width:1.28488" />
      <path
         id="path13"
         style="fill:#e7bb60;stroke-width:1.48571"
         d="m 302,709 h 181 v 80.61069 h -31.39367 a 18.884111,18.884111 135 0 0 -18.88411,18.88411 v 31.49757 h -80.44444 c 0.13673,-11.22761 0.16744,-22.56858 0.12064,-33.87154 -0.0377,-9.11846 -7.5127,-16.51014 -16.63127,-16.51014 H 302 Z"
         transform="matrix(0.99447514,0,0,0.99242424,1.6685083,6.3712121)" />
      <path
         id="path14"
         style="fill:#6eab23;stroke-width:1.00148"
         d="m 302,816.1474 h 17.61171 A 7.3882948,7.3882948 45 0 1 327,823.53569 v 20.25728 h -25 z"
         transform="matrix(1,0,0,0.90430394,0,76.954691)" />
      <path
         id="path15"
         style="fill:#6eab23;stroke-width:1.00148"
         d="m 302,816.1474 h 17.61171 A 7.3882948,7.3882948 45 0 1 327,823.53569 v 20.25728 h -25 z"
         transform="matrix(-1,0,0,0.90430404,784,76.954608)" />
      <path
         id="path28"
         style="display:inline;fill:#cea846;stroke-width:1.57296"
         d="m 335,790 a 17,17.010568 0 0 1 17,17.01057 v 33.02051 h 5 V 807.01057 A 17,17.010568 0 0 0 340,790 Z" />
    </g>
    <g
       id="g35"
       style="display:inline"
       transform="matrix(0,0.355465,0.355556,0,-282.64886,208.09029)">
      <rect
         x="302"
         y="660"
         width="180"
         height="180"
         fill="#6eab23"
         id="rect28"
         style="stroke-width:0.994475" />
      <rect
         x="302"
         y="685"
         width="180"
         height="155"
         fill="#8cb624"
         id="rect29"
         style="stroke-width:1.28488" />
      <path
         id="path29"
         style="fill:#e7bb60;stroke-width:1.48571"
         d="m 302,709 h 181 v 80.61069 h -31.39367 a 18.884111,18.884111 135 0 0 -18.88411,18.88411 v 31.49757 h -80.44444 c 0.13673,-11.22761 0.16744,-22.56858 0.12064,-33.87154 -0.0377,-9.11846 -7.5127,-16.51014 -16.63127,-16.51014 H 302 Z"
         transform="matrix(0.99447514,0,0,0.99242424,1.6685083,6.3712121)" />
      <path
         id="path30"
         style="fill:#6eab23;stroke-width:1.00148"
         d="m 302,816.1474 h 17.61171 A 7.3882948,7.3882948 45 0 1 327,823.53569 v 20.25728 h -25 z"
         transform="matrix(1,0,0,0.90430394,0,76.954691)" />
      <path
         id="path31"
         style="fill:#6eab23;stroke-width:1.00148"
         d="m 302,816.1474 h 17.61171 A 7.3882948,7.3882948 45 0 1 327,823.53569 v 20.25728 h -25 z"
         transform="matrix(-1,0,0,0.90430404,784,76.954608)" />
      <path
         id="path35"
         style="display:inline;fill:#cea846;stroke-width:1.57296"
         d="m 335,790 a 17,17.010568 0 0 1 17,17.01057 v 33.02051 h 5 V 807.01057 A 17,17.010568 0 0 0 340,790 Z" />
    </g>
    <g
       id="g11"
       style="display:inline"
       transform="matrix(0.353591,0,0,0.353501,-90.755684,146.16286)">
      <rect
         x="302"
         y="660"
         width="181"
         height="181"
         fill="#6eab23"
         id="rect9" />
      <rect
         x="302"
         y="685"
         width="181"
         height="130.86111"
         fill="#8cb624"
         id="rect10"
         style="stroke-width:1.18387" />
      <path
         id="path10"
         style="fill:#e7bb60;stroke-width:1.48571"
         d="m 302,709 h 181 v 82 c -123.28696,-0.31803 -181,0 -181,0 z"
         transform="matrix(1,0,0,0.98283004,0,13.451272)" />
      <rect
         style="fill:#cea846;fill-opacity:1;stroke-width:0.948725"
         id="rect11"
         width="181"
         height="5.0277843"
         x="302"
         y="710.27777" />
    </g>
    <g
       id="g48"
       style="display:inline"
       transform="matrix(0,0.355737,-0.355556,0,250.68445,271.99155)">
      <rect
         x="302"
         y="660"
         width="180"
         height="180"
         fill="#6eab23"
         id="rect44"
         style="stroke-width:0.994475" />
      <rect
         x="302"
         y="660"
         width="180"
         height="180"
         fill="#8cb624"
         id="rect45"
         style="stroke-width:1.38463" />
      <path
         id="path45"
         style="fill:#e7bb60;stroke-width:1.48571"
         d="m 302,709 h 33.8118 a 16.465985,16.465985 135 0 0 16.46598,-16.46599 v -33.91569 h 80.44444 v 30.22901 A 20.15267,20.15267 45 0 0 452.87489,709 H 483 v 80.61069 h -31.39367 a 18.884111,18.884111 135 0 0 -18.88411,18.88411 v 31.49757 h -80.44444 c 0.13673,-11.22761 0.16744,-22.56858 0.12064,-33.87154 -0.0377,-9.11846 -7.5127,-16.51014 -16.63127,-16.51014 H 302 Z"
         transform="matrix(0.99447514,0,0,0.99242424,1.6685083,6.3712121)" />
      <path
         id="path46"
         style="fill:#6eab23;stroke-width:1.00148"
         d="m 302,816.1474 h 17.61171 A 7.3882948,7.3882948 45 0 1 327,823.53569 v 20.25728 h -25 z"
         transform="matrix(1,0,0,0.90430394,0,76.954691)" />
      <path
         id="path47"
         style="fill:#6eab23;stroke-width:1.00148"
         d="m 302,816.1474 h 17.61171 A 7.3882948,7.3882948 45 0 1 327,823.53569 v 20.25728 h -25 z"
         transform="matrix(-1,0,0,0.90430404,784,76.954608)" />
      <path
         id="path48"
         style="display:inline;fill:#cea846;stroke-width:1.57296"
         d="m 335,790 a 17,17.010568 0 0 1 17,17.01057 v 33.02051 h 5 V 807.01057 A 17,17.010568 0 0 0 340,790 Z" />
      <path
         id="path59"
         style="display:inline;fill:#cea846;stroke-width:1.57296"
         d="m 335,790 a 17,17.010568 0 0 1 17,17.01057 v 33.02051 h 5 V 807.01057 A 17,17.010568 0 0 0 340,790 Z" />
      <path
         id="path60"
         style="display:inline;fill:#cea846;stroke-width:1.57296"
         d="m 335,709.84989 a 17,17.010568 0 0 0 17,-17.01057 v -33.02051 h 5 v 33.02051 a 17,17.010568 0 0 1 -17,17.01057 z" />
      <path
         id="path61"
         style="fill:#6eab23;stroke-width:1.00148"
         d="m 302,816.1474 h 17.61171 A 7.3882948,7.3882948 45 0 1 327,823.53569 v 20.25728 h -25 z"
         transform="matrix(1,0,0,-0.90430394,0,1423.2047)" />
      <path
         id="path63"
         style="fill:#6eab23;stroke-width:1.00148"
         d="m 302,816.1474 h 17.61171 A 7.3882948,7.3882948 45 0 1 327,823.53569 v 20.25728 h -25 z"
         transform="matrix(-1,0,0,-0.90430394,784,1423.0453)" />
    </g>
    <g
       id="g67"
       style="display:inline"
       transform="matrix(0.353591,0,0,0.353501,-218.75569,210.14648)">
      <rect
         x="302"
         y="660"
         width="181"
         height="181"
         fill="#6eab23"
         id="rect65" />
      <path
         id="rect66"
         style="fill:#8cb624;stroke-width:1.10741"
         d="m 302,685 h 107.82225 a 50.552726,50.552726 45 0 1 50.55273,50.55273 v 29.40214 a 50.906242,50.906242 135 0 1 -50.90624,50.90624 H 302 Z" />
      <path
         id="rect70"
         style="display:inline;fill:#e7bb60;fill-opacity:1"
         d="M 3.3399999e-6,209.77322 H 31.506568 A 14.493432,14.493432 45 0 1 46,224.26665 14.606414,14.606414 137.3473 0 1 30.807613,238.26258 H 3.3399999e-6 Z"
         transform="matrix(2.828125,0,0,2.8288484,301.99999,116.56075)" />
      <path
         id="path71"
         style="display:inline;fill:#cea846;fill-opacity:1;stroke-width:0.984899"
         d="m 391.1045,710.0427 a 40.988879,40.934059 0 0 1 40.98924,40.93441 v 5.4979 A 40.988879,40.934059 0 0 0 391.1045,715.54061 H 351.27793 302 v -5.49791 h 49.27793 z" />
    </g>
    <g
       id="g74"
       style="display:inline"
       transform="matrix(0,-0.353591,0.353501,0,-281.28451,614.23328)">
      <rect
         x="302"
         y="660"
         width="181"
         height="181"
         fill="#6eab23"
         id="rect71" />
      <path
         id="path72"
         style="fill:#8cb624;stroke-width:1.10741"
         d="m 302,685 h 107.82225 a 50.552726,50.552726 45 0 1 50.55273,50.55273 v 29.40214 a 50.906242,50.906242 135 0 1 -50.90624,50.90624 H 302 Z" />
      <path
         id="path73"
         style="display:inline;fill:#e7bb60;fill-opacity:1"
         d="M 3.3399999e-6,209.77322 H 31.755319 A 14.244681,14.244681 45 0 1 46,224.0179 14.244679,14.244679 135 0 1 31.755321,238.26258 H 3.3399999e-6 Z"
         transform="matrix(2.8281249,0,0,2.8288484,301.99999,117.26443)" />
      <path
         id="path74"
         style="display:inline;fill:#cea846;fill-opacity:1;stroke-width:0.984899"
         d="m 432.09374,750.97711 c 2e-4,22.6436 -18.32219,40.99991 -40.92394,40.99972 h -5.4965 c 22.60175,1.9e-4 40.92413,-18.35612 40.92393,-40.99972 z" />
      <path
         id="path87"
         style="display:inline;fill:#cea846;fill-opacity:1;stroke-width:0.984899"
         d="m 432.09374,750.97711 c 2e-4,-22.6436 -18.32219,-40.99991 -40.92394,-40.99972 h -5.4965 c 22.60175,-1.9e-4 40.92413,18.35612 40.92393,40.99972 z" />
    </g>
    <g
       id="g79"
       style="display:inline"
       transform="matrix(-0.353591,0,0,0.353501,186.81338,210.14648)">
      <rect
         x="302"
         y="-841"
         width="181"
         height="181"
         fill="#6eab23"
         id="rect77"
         transform="scale(1,-1)" />
      <path
         id="path77"
         style="fill:#8cb624;stroke-width:1.10741"
         d="m 302,685 h 107.82225 a 50.552726,50.552726 45 0 1 50.55273,50.55273 v 29.40214 a 50.906242,50.906242 135 0 1 -50.90624,50.90624 H 302 Z" />
      <path
         id="path78"
         style="display:inline;fill:#e7bb60;fill-opacity:1"
         d="M 3.3399999e-6,209.77322 H 31.506568 A 14.493432,14.493432 45 0 1 46,224.26665 13.995928,13.995928 135 0 1 32.004072,238.26258 H 3.3399999e-6 Z"
         transform="matrix(2.8281249,0,0,2.8288484,301.99999,116.56075)" />
      <path
         id="path79"
         style="display:inline;fill:#cea846;fill-opacity:1;stroke-width:0.984899"
         d="m 391.1045,710.0427 a 40.988879,40.934059 0 0 1 40.98924,40.93441 v 5.4979 A 40.988879,40.934059 0 0 0 391.1045,715.54061 H 351.27793 302 v -5.49791 h 49.27793 z" />
    </g>
    <g
       id="g84"
       style="display:inline"
       transform="matrix(0,0.353591,0.353501,0,-153.28165,336.67242)">
      <rect
         x="302"
         y="660"
         width="181"
         height="181"
         fill="#6eab23"
         id="rect82" />
      <path
         id="path82"
         style="fill:#8cb624;stroke-width:1.10741"
         d="m 302,685 h 107.82225 a 50.552726,50.552726 45 0 1 50.55273,50.55273 v 29.40214 a 50.906242,50.906242 135 0 1 -50.90624,50.90624 H 302 Z" />
      <path
         id="path83"
         style="display:inline;fill:#e7bb60;fill-opacity:1"
         d="M 3.3399999e-6,209.77322 H 31.755319 A 14.244681,14.244681 45 0 1 46,224.0179 14.244679,14.244679 135 0 1 31.755321,238.26258 H 3.3399999e-6 Z"
         transform="matrix(2.8281249,0,0,2.8288484,301.99999,117.26443)" />
    </g>
    <g
       transform="translate(-111.971,251.457)"
       id="object-1">
      <rect
         x="256"
         width="64"
         height="64"
         style="fill:#6eab23"
         id="rect14"
         y="0" />
      <path
         style="fill:#499322"
         d="m 268.994,38.186 c -1.722,-1.378 -9.606,-8.198 -7.396,-16.102 1.421,-5.083 5.911,0.075 8.068,2.321 2.192,2.283 3.293,5.269 3.293,5.269 -1.05,-1.47 1.201,-15.848 6.257,-14.819 3.058,0.622 5.466,11.765 3.787,14.489 -0.123,0.199 3.449,-4.223 3.715,-4.408 3.706,-2.588 3.084,-2.16 4.846,-2.836 4.641,-1.779 4.836,3.386 3.369,8.243 -1.071,3.545 -3.786,7.119 -5.289,7.843"
         id="path16" />
      <g
         transform="translate(-38.193512,-39.992256)"
         id="g19">
        <path
           d="m 338.435,92.651 c 0.713,2.034 0.59,3.449 -0.635,3.949 -1.208,0.493 -2.942,-0.713 -3.469,-3.605 -0.527,-2.892 -0.661,-3.906 0.463,-3.866 1.124,0.04 2.928,1.488 3.641,3.522 z"
           style="fill:#499322"
           id="path17" />
        <path
           d="m 344.978,91.117 c 0.553,2.494 0.085,5.536 -1.395,5.59 -1.304,0.047 -2.818,-2.391 -3.345,-5.283 -0.527,-2.892 -0.023,-6.58 1.174,-6.595 1.197,-0.015 3.013,3.794 3.566,6.288 z"
           style="fill:#499322"
           id="path18" />
      </g>
    </g>
    <g
       id="object-0"
       transform="translate(-111.971,251.457)">
      <rect
         x="256"
         y="64"
         width="64"
         height="64"
         style="fill:#6eab23"
         id="rect22" />
      <path
         style="fill:#499322"
         d="m 263.521,119.325 -0.66317,-0.54817 c -0.66316,-0.54816 -1.9895,-1.6445 -2.036,-3.33 -0.0465,-1.6855 1.18684,-3.96017 2.78784,-5.3805 1.601,-1.42033 3.56966,-1.98633 5.09866,-1.76266 1.529,0.22367 2.58514,0.19447 3.52233,1.07847 0.37798,0.35653 1.28401,-3.85947 3.33651,-7.02097 2.0525,-3.161503 5.60816,-6.968837 9.4995,-6.912337 3.89133,0.0565 8.11833,3.976834 10.46183,7.010497 2.3435,3.03367 3.07119,6.15562 3.75833,5.136 0.95384,-1.41536 2.4045,-2.281 5.08817,-2.69 2.68367,-0.409 6.60133,1.00934 8.25167,3.67567 1.65033,2.66633 1.03333,6.58067 0.72483,8.53783 l -0.3085,1.95717"
         id="path23"
         sodipodi:nodetypes="cssssssssssssc" />
      <g
         id="g25">
        <path
           style="fill:#499322"
           d="m 284.423,88.285 -0.61117,-1.569833 c -0.61116,-1.569834 -1.8335,-4.7095 -1.998,-7.888834 -0.1645,-3.179333 0.72884,-6.398333 2.2285,-6.703 1.49967,-0.304666 3.60567,2.305 4.56684,5.484334 0.96116,3.179333 0.7775,6.928333 0.68566,8.802833 l -0.0918,1.8745"
           id="path24" />
        <path
           style="fill:#499322"
           d="m 293.3,88.285 -0.099,-1.3825 c -0.099,-1.3825 -0.297,-4.1475 0.797,-6.845167 1.094,-2.697666 3.48,-5.328 5.19033,-5.773166 1.71034,-0.445167 2.745,1.294833 2.30167,3.9925 -0.44333,2.697666 -2.36467,6.353 -3.32533,8.180666 L 297.204,88.285"
           id="path25" />
      </g>
    </g>
  </g>
  <g
     id="g43"
     transform="translate(-1.8040884e-6,-1.2e-4)">
    <rect
       style="fill:#6eab23;fill-opacity:1;stroke-width:1.01436"
       id="rect26"
       width="64.016304"
       height="63.999905"
       x="255.9837"
       y="192.00009" />
    <g
       id="g42"
       transform="translate(-5.5926218,135.715)">
      <path
         style="fill:#499322"
         d="m 284.423,88.285 -0.61117,-1.569833 c -0.61116,-1.569834 -1.8335,-4.7095 -1.998,-7.888834 -0.1645,-3.179333 0.72884,-6.398333 2.2285,-6.703 1.49967,-0.304666 3.60567,2.305 4.56684,5.484334 0.96116,3.179333 0.7775,6.928333 0.68566,8.802833 l -0.0918,1.8745"
         id="path41" />
      <path
         style="fill:#499322"
         d="m 293.3,88.285 -0.099,-1.3825 c -0.099,-1.3825 -0.297,-4.1475 0.797,-6.845167 1.094,-2.697666 3.48,-5.328 5.19033,-5.773166 1.71034,-0.445167 2.745,1.294833 2.30167,3.9925 -0.44333,2.697666 -2.36467,6.353 -3.32533,8.180666 L 297.204,88.285"
         id="path42" />
    </g>
  </g>
  <g
     id="g44"
     transform="translate(63.999988,-1.2e-4)">
    <rect
       style="fill:#6eab23;fill-opacity:1;stroke-width:1.01436"
       id="rect43"
       width="64.016304"
       height="63.999905"
       x="191.9837"
       y="128.00009" />
    <g
       id="g45">
      <path
         d="m 223.5627,155.94367 c 0.713,2.034 0.59,3.449 -0.635,3.949 -1.208,0.493 -2.942,-0.713 -3.469,-3.605 -0.527,-2.892 -0.661,-3.906 0.463,-3.866 1.124,0.04 2.928,1.488 3.641,3.522 z"
         style="fill:#499322"
         id="path43" />
      <path
         d="m 230.1057,154.40967 c 0.553,2.494 0.085,5.536 -1.395,5.59 -1.304,0.047 -2.818,-2.391 -3.345,-5.283 -0.527,-2.892 -0.023,-6.58 1.174,-6.595 1.197,-0.015 3.013,3.794 3.566,6.288 z"
         style="fill:#499322"
         id="path44" />
    </g>
  </g>
</svg>
