<?xml version="1.0" encoding="UTF-8" standalone="no"?>
<svg width="64" height="64" viewBox="0 0 64 64" xmlns="http://www.w3.org/2000/svg">
    <!-- Door Frame -->
    <rect x="2" y="2" width="60" height="60" rx="3" ry="3" fill="#8B4513" stroke="#5D2906" stroke-width="2"/>
    
    <!-- Wood grain texture for frame -->
    <g fill="none" stroke="#6B3009" stroke-width="1" opacity="0.7">
        <path d="M8,4 C10,10 9,20 12,25 C14,30 10,38 8,43 C6,50 9,57 8,60" />
        <path d="M18,4 C20,12 19,22 22,30 C23,37 20,45 19,52 C18,57 20,60 18,62" />
        <path d="M28,4 C30,11 29,21 32,29 C33,36 30,46 29,53 C28,58 30,61 29,62" />
        <path d="M38,4 C40,12 39,22 42,30 C43,37 40,47 39,55 C38,60 40,61 38,62" />
        <path d="M48,4 C50,12 49,22 52,30 C53,37 50,47 49,55 C48,60 50,61 48,62" />
    </g>
    
    <!-- Door hinges -->
    <circle cx="8" cy="12" r="2" fill="#A0522D" stroke="#5D2906" stroke-width="1"/>
    <circle cx="8" cy="52" r="2" fill="#A0522D" stroke="#5D2906" stroke-width="1"/>
    
    <!-- Door handle -->
    <circle cx="54" cy="32" r="3" fill="#DAA520" stroke="#8B6914" stroke-width="1"/>
</svg>
